<svg xmlns="http://www.w3.org/2000/svg" xmlns:xlink="http://www.w3.org/1999/xlink" xmlns:serif="http://www.serif.com/" width="64" height="64" version="1.1" xml:space="preserve" style="fill-rule: evenodd; clip-rule: evenodd; stroke-linejoin: round; stroke-miterlimit: 2;"><rect id="backgroundrect" width="100%" height="100%" x="0" y="0" fill="none" stroke="none"/><g class="currentLayer" style=""><title>Layer 1</title><rect id="Icons" x="-639.21875" y="-127.21875" width="1280" height="800" style="fill:none;" class=""/><g id="Icons1" serif:id="Icons" class="selected" fill-opacity="1" fill="#bb86fc"><g id="Strike" fill="#bb86fc"/><g id="H1" fill="#bb86fc"/><g id="H2" fill="#bb86fc"/><g id="H3" fill="#bb86fc"/><g id="list-ul" fill="#bb86fc"/><g id="hamburger-1" fill="#bb86fc"/><g id="hamburger-2" fill="#bb86fc"/><g id="list-ol" fill="#bb86fc"/><g id="list-task" fill="#bb86fc"/><g id="trash" fill="#bb86fc"/><g id="vertical-menu" fill="#bb86fc"/><g id="horizontal-menu" fill="#bb86fc"/><g id="sidebar-2" fill="#bb86fc"/><g id="Pen" fill="#bb86fc"/><g id="Pen1" serif:id="Pen" fill="#bb86fc"/><g id="clock" fill="#bb86fc"/><g id="external-link" fill="#bb86fc"/><g id="hr" fill="#bb86fc"/><g id="info" fill="#bb86fc"/><g id="warning" fill="#bb86fc"/><g id="plus-circle" fill="#bb86fc"/><g id="minus-circle" fill="#bb86fc"/><g id="vue" fill="#bb86fc"/><g id="cog" fill="#bb86fc"/><g id="logo" fill="#bb86fc"/><g id="eye-slash" fill="#bb86fc"/><g id="eye" fill="#bb86fc"/><g id="toggle-off" fill="#bb86fc"/><g id="shredder" fill="#bb86fc"/><path d="M39.94,44.142c-3.387,2.507 7.145,-8.263 4.148,-4.169c0.075,-0.006 -0.064,0.221 -0.53,0.79c0,0 8.004,7.95 11.933,11.996c1.364,1.475 -1.097,4.419 -2.769,2.882c-3.558,-3.452 -11.977,-12.031 -11.99,-12.045l-0.792,0.546Z" id="svg_1" fill="#bb86fc"/><path d="M28.179,48.162c5.15,-0.05 10.248,-2.183 13.914,-5.806c4.354,-4.303 6.596,-10.669 5.814,-16.747c-1.34,-10.415 -9.902,-17.483 -19.856,-17.483c-7.563,0 -14.913,4.731 -18.137,11.591c-2.468,5.252 -2.473,11.593 0,16.854c3.201,6.812 10.431,11.518 18.008,11.591c0.086,0 0.172,0 0.257,0Zm-0.236,-3.337c-7.691,-0.074 -14.867,-6.022 -16.294,-13.648c-1.006,-5.376 0.893,-11.194 4.849,-15.012c4.618,-4.459 11.877,-5.952 17.913,-3.425c5.4,2.261 9.442,7.511 10.187,13.295c0.638,4.958 -1.141,10.154 -4.637,13.733c-3.067,3.14 -7.368,5.014 -11.803,5.057c-0.072,0 -0.143,0 -0.215,0Z" style="fill-rule:nonzero;" id="svg_2" fill="#bb86fc"/><g id="spinner--loading--dots-" serif:id="spinner [loading, dots]" fill="#bb86fc"/><g id="react" fill="#bb86fc"/></g></g></svg>